<?xml version="1.0" encoding="UTF-8" standalone="no"?>
<svg
   xmlns:dc="http://purl.org/dc/elements/1.1/"
   xmlns:cc="http://creativecommons.org/ns#"
   xmlns:rdf="http://www.w3.org/1999/02/22-rdf-syntax-ns#"
   xmlns:svg="http://www.w3.org/2000/svg"
   xmlns="http://www.w3.org/2000/svg"
   xmlns:sodipodi="http://sodipodi.sourceforge.net/DTD/sodipodi-0.dtd"
   xmlns:inkscape="http://www.inkscape.org/namespaces/inkscape"
   inkscape:version="1.0 (4035a4fb49, 2020-05-01)"
   height="30"
   width="38.570515"
   sodipodi:docname="card_logo_maestro.svg"
   version="1.1"
   viewBox="0 0 38.570514 30"
   data-name="Layer 1"
   id="Layer_1">
  <metadata
     id="metadata23">
    <rdf:RDF>
      <cc:Work
         rdf:about="">
        <dc:format>image/svg+xml</dc:format>
        <dc:type
           rdf:resource="http://purl.org/dc/dcmitype/StillImage" />
        <dc:title>ms_vrt_rgb_pos</dc:title>
      </cc:Work>
    </rdf:RDF>
  </metadata>
  <sodipodi:namedview
     inkscape:current-layer="Layer_1"
     inkscape:window-maximized="1"
     inkscape:window-y="-9"
     inkscape:window-x="93"
     inkscape:cy="28.967793"
     inkscape:cx="20.192857"
     inkscape:zoom="68.771186"
     fit-margin-bottom="0"
     fit-margin-right="0"
     fit-margin-left="0"
     fit-margin-top="0"
     showgrid="false"
     id="namedview21"
     inkscape:window-height="1051"
     inkscape:window-width="1818"
     inkscape:pageshadow="2"
     inkscape:pageopacity="0"
     guidetolerance="10"
     gridtolerance="10"
     objecttolerance="10"
     borderopacity="1"
     bordercolor="#666666"
     pagecolor="#ffffff"
     inkscape:document-rotation="0" />
  <defs
     id="defs4">
    <style
       id="style2">.cls-1{fill:none;}.cls-2{fill:#7673c0;}.cls-3{fill:#eb001b;}.cls-4{fill:#00a1df;}</style>
  </defs>
  <title
     id="title6">ms_vrt_rgb_pos</title>
  <rect
     style="stroke-width:0.248674"
     y="-3.7626429"
     x="-3.7662361"
     id="rect8"
     height="30"
     width="36.500332"
     class="cls-1" />
  <path
     style="stroke-width:0.293536"
     id="path10"
     d="m 12.193107,29.856078 v -1.761214 a 1.042051,1.042051 0 0 0 -1.100758,-1.112499 1.0860813,1.0860813 0 0 0 -0.986279,0.49901 1.0303095,1.0303095 0 0 0 -0.9275726,-0.49901 0.92757215,0.92757215 0 0 0 -0.8218994,0.41682 V 27.052813 H 7.7460441 v 2.803265 h 0.6164246 v -1.552804 a 0.65458415,0.65458415 0 0 1 0.6868731,-0.74558 c 0.4050791,0 0.6105533,0.264183 0.6105533,0.73971 v 1.558674 H 10.27632 v -1.552804 a 0.66045486,0.66045486 0 0 1 0.686874,-0.74558 c 0.41682,0 0.616424,0.264183 0.616424,0.73971 v 1.558674 z m 3.434365,-1.400165 v -1.400164 h -0.616424 v 0.340502 a 1.0625985,1.0625985 0 0 0 -0.880606,-0.410951 1.4676779,1.4676779 0 0 0 0,2.935355 1.0625985,1.0625985 0 0 0 0.880606,-0.410949 v 0.340501 h 0.610554 z m -2.269029,0 a 0.84831757,0.84831757 0 1 1 0.851252,0.898218 0.83951151,0.83951151 0 0 1 -0.857122,-0.898218 z M 28.67219,26.988236 a 1.5792209,1.5792209 0 0 1 0.58707,0.111548 1.4676774,1.4676774 0 0 1 0.478463,0.311147 1.4207117,1.4207117 0 0 1 0.317019,0.466723 1.5557381,1.5557381 0 0 1 0,1.17414 1.4177765,1.4177765 0 0 1 -0.317019,0.466723 1.4676774,1.4676774 0 0 1 -0.478463,0.311147 1.6614109,1.6614109 0 0 1 -1.203495,0 1.4500653,1.4500653 0 0 1 -0.475528,-0.311147 1.4324532,1.4324532 0 0 1 -0.314083,-0.466723 1.5586735,1.5586735 0 0 1 0,-1.17414 1.4324532,1.4324532 0 0 1 0.314083,-0.466723 1.4500653,1.4500653 0 0 1 0.475528,-0.311147 1.5792209,1.5792209 0 0 1 0.610553,-0.12035 z m 0,0.587071 a 0.90996006,0.90996006 0 0 0 -0.349308,0.06458 0.82483473,0.82483473 0 0 0 -0.278858,0.184927 0.86005899,0.86005899 0 0 0 -0.184928,0.293536 1.0185682,1.0185682 0 0 0 0,0.727969 0.85712364,0.85712364 0 0 0 0.184928,0.293535 0.82189938,0.82189938 0 0 0 0.278858,0.184927 0.95399033,0.95399033 0 0 0 0.69568,0 0.83951151,0.83951151 0 0 0 0.293534,-0.184927 0.85125292,0.85125292 0 0 0 0.184928,-0.293535 1.0185682,1.0185682 0 0 0 0,-0.727969 0.85125292,0.85125292 0 0 0 -0.184928,-0.293536 0.83951151,0.83951151 0 0 0 -0.293534,-0.184927 0.90996006,0.90996006 0 0 0 -0.352244,-0.08219 z m -9.727767,0.880606 c 0,-0.880606 -0.545976,-1.467677 -1.329716,-1.467677 a 1.4678213,1.4678213 0 0 0 0.04109,2.935354 1.7025059,1.7025059 0 0 0 1.147723,-0.393337 l -0.293537,-0.452044 a 1.3355864,1.3355864 0 0 1 -0.816029,0.293535 0.77786905,0.77786905 0 0 1 -0.839511,-0.686874 h 2.081167 c 0.0089,-0.07339 0.0089,-0.146768 0.0089,-0.228957 z m -2.087037,-0.24657 a 0.72209731,0.72209731 0 0 1 0.736774,-0.678066 0.69567912,0.69567912 0 0 1 0.710356,0.681002 z m 4.655472,-0.440303 a 1.8052433,1.8052433 0 0 0 -0.880606,-0.240699 c -0.33463,0 -0.534234,0.123285 -0.534234,0.328759 0,0.205476 0.211346,0.2407 0.475527,0.275925 l 0.293536,0.04109 c 0.610553,0.08806 0.980408,0.346372 0.980408,0.839511 0,0.493141 -0.469656,0.915831 -1.27688,0.915831 a 2.0224595,2.0224595 0 0 1 -1.212301,-0.363986 l 0.293536,-0.475528 a 1.4940956,1.4940956 0 0 0 0.933442,0.293536 c 0.416821,0 0.639908,-0.123285 0.639908,-0.340502 0,-0.158509 -0.158509,-0.24657 -0.493139,-0.293535 l -0.293536,-0.0411 c -0.628166,-0.08806 -0.968667,-0.369856 -0.968667,-0.827771 0,-0.557717 0.457916,-0.898218 1.174142,-0.898218 a 2.0958434,2.0958434 0 0 1 1.141853,0.293535 z m 2.935356,-0.15851 h -0.995085 v 1.265139 c 0,0.293535 0.0998,0.469656 0.405078,0.469656 a 1.1271763,1.1271763 0 0 0 0.540106,-0.158509 l 0.176121,0.522494 a 1.4324532,1.4324532 0 0 1 -0.763191,0.217215 c -0.722098,0 -0.974538,-0.387466 -0.974538,-1.039115 v -1.27688 h -0.56946 v -0.557717 h 0.56946 V 26.20156 h 0.616424 v 0.851253 h 0.995085 z m 2.11052,-0.628165 a 1.3032976,1.3032976 0 0 1 0.434433,0.07632 l -0.187863,0.587075 a 0.99214993,0.99214993 0 0 0 -0.381596,-0.07045 c -0.399208,0 -0.587072,0.25831 -0.587072,0.722097 v 1.570415 H 25.226082 V 27.06456 h 0.604684 v 0.340502 a 0.82777009,0.82777009 0 0 1 0.73971,-0.410949 z m 4.221041,2.465698 a 0.29353549,0.29353549 0 0 1 0.111547,0.02055 0.29353549,0.29353549 0 0 1 0.091,0.0587 0.29353549,0.29353549 0 0 1 0.06164,0.08805 0.27298801,0.27298801 0 0 1 0,0.217217 0.29353549,0.29353549 0 0 1 -0.06164,0.08806 0.29353549,0.29353549 0 0 1 -0.091,0.05872 0.27592337,0.27592337 0 0 1 -0.111547,0.02348 0.29353549,0.29353549 0 0 1 -0.264182,-0.17025 0.27592337,0.27592337 0 0 1 0,-0.217217 0.29353549,0.29353549 0 0 1 0.06164,-0.08805 0.29353549,0.29353549 0 0 1 0.091,-0.0587 0.29353549,0.29353549 0 0 1 0.09686,-0.02055 z m 0,0.496076 a 0.2084102,0.2084102 0 0 0 0.08513,-0.01761 0.22015162,0.22015162 0 0 0 0.0675,-0.04697 0.21721626,0.21721626 0 0 0 -0.0675,-0.352242 0.21134555,0.21134555 0 0 0 -0.08513,-0.01761 0.22015162,0.22015162 0 0 0 -0.08513,0.01761 0.21428091,0.21428091 0 0 0 -0.07045,0.04697 0.21721626,0.21721626 0 0 0 0,0.293534 0.21721626,0.21721626 0 0 0 0.155574,0.06458 z m 0.01762,-0.349309 a 0.1174142,0.1174142 0 0 1 0.07631,0.02348 0.07338388,0.07338388 0 0 1 0.02642,0.06164 0.07044852,0.07044852 0 0 1 -0.02055,0.05283 0.10273742,0.10273742 0 0 1 -0.06164,0.02642 l 0.08513,0.09686 h -0.06752 l -0.07925,-0.09686 h -0.02642 v 0.09686 h -0.05577 v -0.270052 z m -0.06458,0.0499 v 0.07045 h 0.06458 a 0.06164246,0.06164246 0 0 0 0.03522,0 0.02935355,0.02935355 0 0 0 0,-0.02642 0.02935355,0.02935355 0 0 0 0,-0.02642 0.06164246,0.06164246 0 0 0 -0.03522,0 z" />
  <g
     transform="matrix(0.24867374,0,0,0.24867374,-3.7662359,-3.7626428)"
     data-name="&lt;Group&gt;"
     id="_Group_">
    <rect
       id="rect12"
       height="66.822678"
       width="37.182728"
       y="32.261627"
       x="73.348877"
       class="cls-2"
       style="stroke-width:1.1804" />
    <path
       d="m 75.709692,65.678866 a 42.423722,42.423722 0 0 1 16.230556,-33.417239 42.494546,42.494546 0 1 0 0,66.82267 42.423722,42.423722 0 0 1 -16.230556,-33.405431 z"
       class="cls-3"
       data-name="&lt;Path&gt;"
       id="_Path_"
       style="stroke-width:1.1804" />
    <path
       id="path15"
       d="m 156.63819,92.001876 v -1.322052 h 0.5548 v -0.283298 h -1.40468 v 0.283298 h 0.55478 v 1.369268 z m 2.72674,0 v -1.652565 h -0.42494 l -0.49577,1.180404 -0.49578,-1.180404 h -0.43675 v 1.652565 h 0.30691 v -1.239424 l 0.46035,1.074167 h 0.31872 l 0.46036,-1.074167 v 1.251228 z"
       class="cls-4"
       style="stroke-width:1.1804" />
    <path
       id="path17"
       d="m 160.68698,65.678866 a 42.494546,42.494546 0 0 1 -68.746732,33.405431 42.494546,42.494546 0 0 0 0,-66.82267 42.494546,42.494546 0 0 1 68.758542,33.405434 z"
       class="cls-4"
       style="stroke-width:1.1804" />
  </g>
</svg>
